<svg width="18" height="18" viewBox="0 0 18 18" fill="none" xmlns="http://www.w3.org/2000/svg">
<path d="M10.0313 13.4688C10.0313 13.6727 9.97077 13.8721 9.85746 14.0417C9.74414 14.2113 9.58308 14.3434 9.39465 14.4215C9.20621 14.4996 8.99886 14.52 8.79882 14.4802C8.59877 14.4404 8.41502 14.3422 8.2708 14.198C8.12658 14.0537 8.02836 13.87 7.98857 13.6699C7.94878 13.4699 7.9692 13.2625 8.04725 13.0741C8.12531 12.8857 8.25748 12.7246 8.42707 12.6113C8.59666 12.498 8.79604 12.4375 9 12.4375C9.27351 12.4375 9.53581 12.5462 9.72921 12.7395C9.9226 12.9329 10.0313 13.1952 10.0313 13.4688ZM9 4.1875C7.10422 4.1875 5.5625 5.57539 5.5625 7.28125V7.625C5.5625 7.80734 5.63494 7.9822 5.76387 8.11114C5.8928 8.24007 6.06767 8.3125 6.25 8.3125C6.43234 8.3125 6.60721 8.24007 6.73614 8.11114C6.86507 7.9822 6.9375 7.80734 6.9375 7.625V7.28125C6.9375 6.33594 7.86305 5.5625 9 5.5625C10.137 5.5625 11.0625 6.33594 11.0625 7.28125C11.0625 8.22656 10.137 9 9 9C8.81767 9 8.6428 9.07243 8.51387 9.20136C8.38494 9.33029 8.3125 9.50516 8.3125 9.6875V10.375C8.3125 10.5573 8.38494 10.7322 8.51387 10.8611C8.6428 10.9901 8.81767 11.0625 9 11.0625C9.18234 11.0625 9.35721 10.9901 9.48614 10.8611C9.61507 10.7322 9.6875 10.5573 9.6875 10.375V10.3131C11.255 10.0252 12.4375 8.77484 12.4375 7.28125C12.4375 5.57539 10.8958 4.1875 9 4.1875ZM17.9375 9C17.9375 10.7677 17.4133 12.4956 16.4313 13.9654C15.4492 15.4352 14.0534 16.5807 12.4202 17.2572C10.7871 17.9336 8.99009 18.1106 7.25638 17.7658C5.52268 17.4209 3.93017 16.5697 2.68024 15.3198C1.43031 14.0698 0.579091 12.4773 0.234236 10.7436C-0.11062 9.00992 0.0663725 7.21288 0.742831 5.57977C1.41929 3.94665 2.56483 2.55081 4.0346 1.56874C5.50436 0.586675 7.23233 0.0625 9 0.0625C11.3696 0.0650023 13.6414 1.00743 15.317 2.683C16.9926 4.35856 17.935 6.6304 17.9375 9ZM16.5625 9C16.5625 7.50428 16.119 6.04215 15.288 4.7985C14.457 3.55485 13.2759 2.58555 11.894 2.01316C10.5122 1.44077 8.99162 1.29101 7.52463 1.58281C6.05765 1.87461 4.71014 2.59487 3.65251 3.65251C2.59487 4.71014 1.87462 6.05765 1.58282 7.52463C1.29101 8.99161 1.44078 10.5122 2.01316 11.894C2.58555 13.2759 3.55486 14.457 4.7985 15.288C6.04215 16.119 7.50428 16.5625 9 16.5625C11.005 16.5602 12.9272 15.7627 14.345 14.345C15.7627 12.9272 16.5602 11.005 16.5625 9Z" fill="#212529"/>
</svg>
