<svg width="107" height="108" viewBox="0 0 107 108" fill="none" xmlns="http://www.w3.org/2000/svg">
<g id="Search results for Bank - Flaticon-12 1">
<g id="Group">
<path id="Vector" d="M48.6609 70.8299L46.9531 72.9406C48.4761 74.3552 50.4124 75.2444 52.4778 75.4777V77.066H54.6354V75.5488C58.0744 75.3113 60.0422 73.3201 60.0422 70.5925C60.0422 67.7001 57.8847 66.5858 54.6354 65.8502V61.3922C55.8885 61.6959 57.0461 62.3073 58.0034 63.171L59.6151 60.9892C58.2288 59.7487 56.4859 58.978 54.6354 58.7874V57.3145H52.4778V58.7606C49.5612 59.1159 47.5935 61.0845 47.5935 63.645C47.5935 66.4429 49.5612 67.4861 52.4778 68.2427V72.8662C51.0445 72.5459 49.7252 71.842 48.6609 70.8299ZM54.6354 68.7902C56.3198 69.2918 57.078 69.7866 57.078 70.88C57.078 71.9233 56.2487 72.8244 54.6354 73.0142V68.7902ZM50.5811 63.385C50.6203 62.8808 50.8292 62.4047 51.1736 62.0343C51.5181 61.6639 51.9778 61.4211 52.4778 61.3453V65.2809C51.198 64.8312 50.5811 64.333 50.5811 63.385Z" fill="#003C1C"/>
<path id="Vector_2" d="M53.4996 82.5282C56.5338 82.5284 59.4998 81.6288 62.0227 79.9432C64.5456 78.2575 66.5119 75.8616 67.673 73.0584C68.8342 70.2552 69.1379 67.1706 68.5459 64.1948C67.9539 61.2189 66.4927 58.4855 64.3471 56.3401C62.2015 54.1948 59.4679 52.7339 56.492 52.1422C53.516 51.5505 50.4315 51.8546 47.6284 53.016C44.8253 54.1774 42.4296 56.144 40.7443 58.6671C39.059 61.1901 38.1597 64.1563 38.1602 67.1905C38.1657 71.2569 39.7836 75.1552 42.6592 78.0304C45.5347 80.9056 49.4332 82.5232 53.4996 82.5282ZM53.4996 54.7751C55.955 54.775 58.3552 55.5029 60.3969 56.8669C62.4385 58.2309 64.0299 60.1696 64.9696 62.438C65.9094 64.7064 66.1554 67.2025 65.6766 69.6108C65.1977 72.019 64.0155 74.2311 62.2794 75.9674C60.5433 77.7037 58.3314 78.8862 55.9232 79.3654C53.5151 79.8446 51.0189 79.5989 48.7504 78.6595C46.4819 77.72 44.5429 76.1289 43.1786 74.0874C41.8144 72.046 41.0861 69.6458 41.0859 67.1905C41.0897 63.8991 42.3987 60.7437 44.7259 58.4162C47.053 56.0888 50.2083 54.7793 53.4996 54.7751Z" fill="#003C1C"/>
<path id="Vector_3" d="M101.727 31.2753C101.919 31.2755 102.109 31.2377 102.287 31.1642C102.464 31.0907 102.626 30.983 102.762 30.8471C102.897 30.7113 103.005 30.5499 103.079 30.3724C103.152 30.1949 103.19 30.0046 103.19 29.8125V23.4334C103.19 23.1318 103.096 22.8375 102.923 22.5909C102.749 22.3443 102.503 22.1574 102.219 22.0558L53.9908 4.83464C53.6728 4.72179 53.3257 4.72179 53.0077 4.83464L4.77995 22.0558C4.49579 22.1573 4.24994 22.3441 4.07606 22.5907C3.90218 22.8373 3.80876 23.1317 3.80859 23.4334V29.8125C3.80859 30.2004 3.96272 30.5725 4.23706 30.8469C4.51141 31.1212 4.8835 31.2753 5.27148 31.2753H7.63468V35.078H5.27148C4.8835 35.078 4.51141 35.2321 4.23706 35.5065C3.96272 35.7808 3.80859 36.1529 3.80859 36.5409V43.4224C3.80859 43.8103 3.96272 44.1824 4.23706 44.4568C4.51141 44.7311 4.8835 44.8852 5.27148 44.8852H10.6532V50.5596C10.6532 50.9476 10.8074 51.3197 11.0817 51.594C11.3561 51.8684 11.7282 52.0225 12.1161 52.0225H13.416V82.3612H12.1203C11.7324 82.3614 11.3604 82.5156 11.0861 82.7899C10.8118 83.0642 10.6577 83.4361 10.6574 83.8241V89.4984H5.27148C4.8835 89.4984 4.51141 89.6525 4.23706 89.9269C3.96272 90.2012 3.80859 90.5733 3.80859 90.9613V102.671C3.80859 103.059 3.96272 103.431 4.23706 103.706C4.51141 103.98 4.8835 104.134 5.27148 104.134H101.727C101.919 104.134 102.109 104.096 102.287 104.023C102.464 103.949 102.626 103.842 102.762 103.706C102.897 103.57 103.005 103.409 103.079 103.231C103.152 103.054 103.19 102.863 103.19 102.671V90.9588C103.19 90.7666 103.152 90.5764 103.079 90.3988C103.005 90.2213 102.897 90.06 102.762 89.9241C102.626 89.7883 102.464 89.6805 102.287 89.607C102.109 89.5335 101.919 89.4958 101.727 89.4959H96.3452V83.8215C96.3452 83.4336 96.1911 83.0615 95.9167 82.7871C95.6424 82.5128 95.2703 82.3587 94.8823 82.3587H93.5824V52.0225H94.8823C95.0744 52.0226 95.2647 51.9848 95.4423 51.9113C95.6198 51.8379 95.7811 51.7301 95.917 51.5942C96.0528 51.4584 96.1606 51.2971 96.2341 51.1195C96.3075 50.942 96.3453 50.7517 96.3452 50.5596V44.8852H101.727C101.919 44.8854 102.109 44.8476 102.287 44.7741C102.464 44.7006 102.626 44.5929 102.762 44.457C102.897 44.3212 103.005 44.1598 103.079 43.9823C103.152 43.8048 103.19 43.6145 103.19 43.4224V36.5409C103.19 36.3488 103.152 36.1585 103.079 35.981C103.005 35.8034 102.897 35.6421 102.762 35.5062C102.626 35.3704 102.464 35.2626 102.287 35.1892C102.109 35.1157 101.919 35.0779 101.727 35.078H99.3638V31.2753H101.727ZM6.73438 24.465L53.4992 7.76627L100.264 24.465V28.3496H6.73438V24.465ZM28.218 44.8852V49.0967H13.579V44.8852H28.218ZM75.858 44.8852V50.5596C75.8579 50.7517 75.8957 50.942 75.9692 51.1195C76.0427 51.2971 76.1504 51.4584 76.2863 51.5942C76.4221 51.7301 76.5835 51.8379 76.761 51.9113C76.9385 51.9848 77.1288 52.0226 77.3209 52.0225H78.6191V82.3612H77.3234C76.9355 82.3612 76.5634 82.5153 76.289 82.7896C76.0147 83.064 75.8606 83.4361 75.8606 83.8241V89.4984H31.1421V83.8215C31.1419 83.4336 30.9877 83.0617 30.7134 82.7874C30.4391 82.5131 30.0671 82.3589 29.6792 82.3587H28.3793V52.0225H29.6792C30.0672 52.0225 30.4393 51.8684 30.7136 51.594C30.988 51.3197 31.1421 50.9476 31.1421 50.5596V44.8852H75.858ZM16.3393 52.0225H25.451V82.3612H16.3418L16.3393 52.0225ZM13.5807 85.2844H28.218V89.4959H13.579L13.5807 85.2844ZM100.267 101.206H6.73438V92.4217H100.264L100.267 101.206ZM78.7838 89.4959V85.2869H93.4211V89.4984L78.7838 89.4959ZM90.6541 82.3587H81.5449V52.0225H90.6566L90.6541 82.3587ZM93.4127 49.0967H78.7822V44.8852H93.4194L93.4127 49.0967ZM100.257 41.9595H6.73438V38.0038H100.264L100.257 41.9595ZM96.4313 35.078H10.5605V31.2753H96.438L96.4313 35.078Z" fill="#08BF5D"/>
</g>
</g>
</svg>
