<svg width="14" height="14" viewBox="0 0 14 14" fill="none" xmlns="http://www.w3.org/2000/svg">
<g clip-path="url(#clip0_735_3684)">
<path d="M13.1597 7.00564C13.1597 10.3921 10.4144 13.1374 7.02795 13.1374C3.6415 13.1374 0.89624 10.3921 0.89624 7.00564C0.89624 3.61917 3.64151 0.873901 7.02795 0.873901C10.4144 0.873901 13.1597 3.61917 13.1597 7.00564ZM7.02797 2.04905C4.29053 2.04905 2.07137 4.2682 2.07137 7.00563C2.07137 9.74309 4.29052 11.9622 7.02797 11.9622C9.76539 11.9622 11.9845 9.74309 11.9845 7.00563C11.9845 4.26819 9.76539 2.04905 7.02797 2.04905Z" fill="#08BF5D"/>
<path d="M5.24707 7.00563C5.24707 7.9892 6.04441 8.78653 7.02797 8.78653C8.01152 8.78653 8.80887 7.98918 8.80887 7.00563C8.80887 6.02206 8.01152 5.22473 7.02797 5.22473C6.0444 5.22473 5.24707 6.02207 5.24707 7.00563Z" fill="#08BF5D"/>
</g>
<defs>
<clipPath id="clip0_735_3684">
<rect width="14" height="14" fill="white"/>
</clipPath>
</defs>
</svg>
