<svg width="13" height="19" viewBox="0 0 13 19" fill="none" xmlns="http://www.w3.org/2000/svg">
<path d="M6.5002 0.59375C5.55537 0.59375 4.64923 0.969084 3.98113 1.63718C3.31304 2.30528 2.9377 3.21142 2.9377 4.15625V4.75H2.44489C1.94502 4.74947 1.46421 4.94176 1.10255 5.28683C0.740892 5.6319 0.526256 6.10316 0.503327 6.6025L0.0342644 16.3697C0.0222401 16.6323 0.063522 16.8947 0.155622 17.141C0.247721 17.3872 0.388731 17.6123 0.570152 17.8026C0.751573 17.9929 0.969648 18.1445 1.21123 18.2482C1.45282 18.352 1.71291 18.4057 1.97583 18.4062H11.0246C11.2875 18.4057 11.5476 18.352 11.7892 18.2482C12.0308 18.1445 12.2488 17.9929 12.4303 17.8026C12.6117 17.6123 12.7527 17.3872 12.8448 17.141C12.9369 16.8947 12.9782 16.6323 12.9661 16.3697L12.4971 6.6025C12.4741 6.10316 12.2595 5.6319 11.8979 5.28683C11.5362 4.94176 11.0554 4.74947 10.5555 4.75H10.0627V4.15625C10.0627 3.21142 9.68737 2.30528 9.01927 1.63718C8.35117 0.969084 7.44504 0.59375 6.5002 0.59375ZM4.1252 4.15625C4.1252 3.52636 4.37542 2.92227 4.82082 2.47687C5.26622 2.03147 5.87031 1.78125 6.5002 1.78125C7.13009 1.78125 7.73418 2.03147 8.17958 2.47687C8.62498 2.92227 8.8752 3.52636 8.8752 4.15625V4.75H4.1252V4.15625ZM11.3096 6.65594L11.7786 16.4291C11.7824 16.5312 11.7659 16.633 11.7303 16.7288C11.6946 16.8246 11.6404 16.9124 11.5708 16.9872C11.4998 17.0602 11.4148 17.1182 11.321 17.158C11.2272 17.1978 11.1265 17.2184 11.0246 17.2188H1.97583C1.87395 17.2184 1.77317 17.1978 1.67937 17.158C1.58557 17.1182 1.50065 17.0602 1.42958 16.9872C1.35997 16.9124 1.30579 16.8246 1.27014 16.7288C1.23448 16.633 1.21804 16.5312 1.22176 16.4291L1.69083 6.65594C1.69999 6.46219 1.78346 6.27942 1.9239 6.14562C2.06433 6.01182 2.25092 5.93728 2.44489 5.9375H10.5555C10.7495 5.93728 10.9361 6.01182 11.0765 6.14562C11.2169 6.27942 11.3004 6.46219 11.3096 6.65594Z" fill="black"/>
</svg>
