<svg width="28" height="28" viewBox="0 0 28 28" fill="none" xmlns="http://www.w3.org/2000/svg">
<path d="M14 2.75C7.7872 2.75 2.75001 7.78719 2.75001 14C2.75001 16.0297 3.28626 17.9309 4.2247 19.5734C4.28673 19.6818 4.32647 19.8015 4.34161 19.9255C4.35674 20.0494 4.34695 20.1752 4.31282 20.2953L2.96376 25.0381L7.70845 23.6881C7.82858 23.654 7.95431 23.6442 8.07828 23.6593C8.20224 23.6745 8.32193 23.7142 8.43032 23.7762C10.1265 24.745 12.0467 25.2531 14 25.25C20.2138 25.25 25.25 20.2128 25.25 14C25.25 7.78719 20.2138 2.75 14 2.75ZM0.87501 14C0.87501 6.75125 6.75126 0.875 14 0.875C21.2488 0.875 27.125 6.75125 27.125 14C27.125 21.2487 21.2488 27.125 14 27.125C11.78 27.125 9.68563 26.5728 7.85001 25.5978L2.66751 27.0716C2.42665 27.1398 2.17193 27.1426 1.92965 27.0795C1.68738 27.0164 1.46634 26.8898 1.28936 26.7127C1.11238 26.5356 0.985884 26.3145 0.922931 26.0722C0.859979 25.8299 0.862854 25.5752 0.93126 25.3344L2.40501 20.1528C1.39781 18.2585 0.872355 16.1454 0.87501 14ZM8.37501 11.1875C8.37501 10.9389 8.47378 10.7004 8.6496 10.5246C8.82541 10.3488 9.06387 10.25 9.31251 10.25H18.6875C18.9362 10.25 19.1746 10.3488 19.3504 10.5246C19.5262 10.7004 19.625 10.9389 19.625 11.1875C19.625 11.4361 19.5262 11.6746 19.3504 11.8504C19.1746 12.0262 18.9362 12.125 18.6875 12.125H9.31251C9.06387 12.125 8.82541 12.0262 8.6496 11.8504C8.47378 11.6746 8.37501 11.4361 8.37501 11.1875ZM9.31251 15.875C9.06387 15.875 8.82541 15.9738 8.6496 16.1496C8.47378 16.3254 8.37501 16.5639 8.37501 16.8125C8.37501 17.0611 8.47378 17.2996 8.6496 17.4754C8.82541 17.6512 9.06387 17.75 9.31251 17.75H14.9375C15.1861 17.75 15.4246 17.6512 15.6004 17.4754C15.7762 17.2996 15.875 17.0611 15.875 16.8125C15.875 16.5639 15.7762 16.3254 15.6004 16.1496C15.4246 15.9738 15.1861 15.875 14.9375 15.875H9.31251Z" fill="black"/>
</svg>
