<svg width="120" height="30" viewBox="0 0 120 30" fill="none" xmlns="http://www.w3.org/2000/svg">
<line y1="14.5" x2="120" y2="14.5" stroke="black" stroke-dasharray="4 4"/>
<circle cx="60" cy="15" r="15" fill="#08BF5D"/>
<path d="M58.8038 18.671L57.1542 20.3207C56.4702 21.0046 55.3627 21.0046 54.6793 20.3208C53.9958 19.6374 53.9958 18.5297 54.6792 17.8463L57.9791 14.5464C58.6625 13.863 59.7701 13.863 60.4535 14.5464C60.6813 14.7742 61.0507 14.7742 61.2785 14.5464C61.5063 14.3186 61.5063 13.9492 61.2785 13.7214C60.1395 12.5824 58.2931 12.5824 57.1542 13.7214L53.8542 17.0213C52.7153 18.1603 52.7153 20.0067 53.8542 21.1457C54.9931 22.2852 56.8396 22.2852 57.9791 21.1457L59.6288 19.496C59.8566 19.2682 59.8566 18.8988 59.6288 18.671C59.401 18.4432 59.0316 18.4432 58.8038 18.671Z" fill="white"/>
<path d="M66.1434 8.85424C65.0044 7.71525 63.1575 7.71525 62.0185 8.85424L60.0393 10.8335C59.8115 11.0613 59.8115 11.4307 60.0393 11.6585C60.2671 11.8863 60.6364 11.8863 60.8642 11.6585L62.8435 9.6792C63.5268 8.99582 64.6351 8.99582 65.3185 9.6792C66.0018 10.3626 66.0018 11.4702 65.3185 12.1536L61.6889 15.7831C61.0056 16.4665 59.8979 16.4665 59.2146 15.7831C58.9868 15.5553 58.6174 15.5553 58.3896 15.7831C58.1618 16.0109 58.1618 16.3803 58.3896 16.6081C59.5286 17.7471 61.3749 17.7471 62.5139 16.6081L66.1434 12.9786C67.2824 11.8396 67.2824 9.99322 66.1434 8.85424Z" fill="white"/>
</svg>
