<svg width="20" height="18" viewBox="0 0 20 18" fill="none" xmlns="http://www.w3.org/2000/svg">
<path d="M20.0002 7.20831C20.0002 3.3757 16.2821 0.25769 11.7121 0.25769C7.14193 0.25769 3.42383 3.37573 3.42383 7.20831C3.42383 11.0409 7.14193 14.1589 11.7121 14.1589C12.0963 14.1589 12.4819 14.1367 12.861 14.0928C14.6212 15.211 15.9207 15.8231 16.7261 15.9125C16.7541 15.9156 16.7823 15.9171 16.8099 15.9171C17.0686 15.9171 17.308 15.7882 17.4506 15.572C17.61 15.3302 17.6204 15.0234 17.4784 14.7729C17.4718 14.761 16.8503 13.627 17.0296 12.5438C18.9205 11.2205 20.0002 9.28674 20.0002 7.20831ZM9.46115 8.25805C8.78301 8.25805 8.23344 7.70834 8.23344 7.03031C8.23344 6.35223 8.78301 5.80256 9.46115 5.80256C10.1392 5.80256 10.689 6.35227 10.689 7.03031C10.689 7.70834 10.1392 8.25805 9.46115 8.25805ZM13.9631 8.25805C13.2849 8.25805 12.7352 7.70834 12.7352 7.03031C12.7352 6.35223 13.2849 5.80256 13.9631 5.80256C14.6411 5.80256 15.1909 6.35227 15.1909 7.03031C15.1909 7.70834 14.6411 8.25805 13.9631 8.25805Z" fill="#C9C9C9"/>
<path d="M5.17461 12.7693C4.35222 12.0883 3.70395 11.2912 3.24807 10.4002C2.76739 9.46086 2.52369 8.46158 2.52369 7.43021C2.52369 6.3988 2.76742 5.39956 3.24807 4.46018C3.28487 4.38828 3.3234 4.31727 3.36265 4.24658C1.33268 5.40959 0 7.35063 0 9.54485C0 11.5162 1.06193 13.344 2.91712 14.5734C3.25977 15.9205 2.46464 17.3456 2.45624 17.3602C2.40886 17.4437 2.41235 17.5469 2.46523 17.6271C2.51288 17.6994 2.59333 17.7421 2.67873 17.7421C2.68817 17.7421 2.69758 17.7416 2.70712 17.7405C3.63529 17.6375 5.26977 16.6941 6.50801 15.8987C6.92503 15.9553 7.35134 15.9839 7.77667 15.9839C9.40333 15.9839 10.9146 15.5679 12.1644 14.8581C11.8852 14.8805 11.604 14.8924 11.3236 14.8924C9.01196 14.8924 6.82824 14.1384 5.17461 12.7693Z" fill="#C9C9C9"/>
</svg>
