<svg width="21" height="21" viewBox="0 0 21 21" fill="none" xmlns="http://www.w3.org/2000/svg">
<path d="M10.5213 0.145874C9.18959 0.145874 7.8709 0.408177 6.64054 0.917807C5.41019 1.42744 4.29226 2.17441 3.35058 3.11609C2.40891 4.05776 1.66193 5.17569 1.1523 6.40605C0.642674 7.6364 0.380371 8.95509 0.380371 10.2868C0.380371 11.6185 0.642674 12.9372 1.1523 14.1676C1.66193 15.3979 2.40891 16.5159 3.35058 17.4575C4.29226 18.3992 5.41019 19.1462 6.64054 19.6558C7.8709 20.1655 9.18959 20.4278 10.5213 20.4278C11.853 20.4278 13.1717 20.1655 14.4021 19.6558C15.6324 19.1462 16.7504 18.3992 17.692 17.4575C18.6337 16.5159 19.3807 15.3979 19.8903 14.1676C20.4 12.9372 20.6623 11.6185 20.6623 10.2868C20.6623 8.95509 20.4 7.6364 19.8903 6.40605C19.3807 5.17569 18.6337 4.05776 17.692 3.11609C16.7504 2.17441 15.6324 1.42744 14.4021 0.917807C13.1717 0.408177 11.853 0.145874 10.5213 0.145874ZM14.7081 4.57936C14.9937 4.57859 15.2773 4.64245 15.5218 4.77101C16.1088 5.07953 16.4604 5.65986 16.4618 6.3228C16.4624 6.62411 16.4106 6.85228 16.279 7.12737L16.1765 7.34145L13.9686 9.55483C12.4486 11.0785 11.7293 11.7829 11.6599 11.8153C11.5668 11.8589 11.4835 11.8624 10.564 11.8624C9.64975 11.8624 9.56067 11.8587 9.46809 11.8159C9.34613 11.7597 9.26942 11.6799 9.21741 11.5554C9.18443 11.4764 9.17849 11.3095 9.17896 10.4724C9.17941 9.55904 9.18312 9.47507 9.22662 9.38206C9.25909 9.31262 9.96199 8.59522 11.4871 7.07491C13.5387 5.02975 13.7137 4.86177 13.8818 4.77542C14.1348 4.64552 14.4224 4.58014 14.7081 4.57936ZM11.156 4.96041L11.2567 5.01805C11.4462 5.12647 11.5355 5.41898 11.4368 5.60791C11.3878 5.70179 11.2737 5.80768 11.1858 5.84087C11.1384 5.85881 10.5705 5.86772 9.46832 5.86772C8.42467 5.86772 7.74986 5.87767 7.62562 5.89495C6.59521 6.03827 5.75872 6.82336 5.54786 7.84497C5.50392 8.05787 5.50098 8.23617 5.50098 10.7047C5.50098 13.1772 5.50384 13.3511 5.54802 13.564C5.68336 14.2163 6.05943 14.7699 6.61904 15.1405C6.88184 15.3145 7.15921 15.428 7.48542 15.495C7.7088 15.5409 7.84449 15.5427 10.4203 15.5357L13.121 15.5284L13.3182 15.4725C14.3033 15.1936 15.0103 14.3987 15.1469 13.4162C15.1642 13.292 15.1742 12.6173 15.1742 11.5736C15.1742 10.4714 15.183 9.9035 15.201 9.85603C15.2338 9.76915 15.3398 9.65423 15.4312 9.60651C15.4686 9.58696 15.5593 9.57116 15.6327 9.57138C15.8034 9.57198 15.9466 9.65029 16.0242 9.78562L16.0817 9.88589L16.074 11.7501L16.0663 13.6144L15.9978 13.8754C15.694 15.0345 14.8823 15.9165 13.7803 16.285C13.2455 16.4639 13.3848 16.4564 10.4632 16.4625C9.01528 16.4655 7.73994 16.4587 7.6291 16.4473C7.21238 16.4043 6.83088 16.2955 6.47591 16.1183C5.49679 15.6295 4.84625 14.7666 4.62609 13.6648C4.58414 13.4548 4.58075 13.2345 4.58075 10.6921V7.94609L4.63761 7.68945C4.93544 6.34466 5.84893 5.39105 7.17347 5.04226L7.42755 4.97534L9.29176 4.96791L11.156 4.96041ZM14.7537 5.48273C14.6246 5.47852 14.4904 5.50311 14.3597 5.56095C14.3019 5.58649 14.1923 5.66529 14.1161 5.73603L13.9776 5.8647L14.5694 6.4582C14.8949 6.78465 15.1687 7.05178 15.1779 7.05178C15.1872 7.05178 15.2485 6.99222 15.3143 6.91948C15.5139 6.69857 15.5905 6.45437 15.5471 6.17781C15.4827 5.76716 15.1411 5.49536 14.7537 5.48273ZM13.3229 6.52257L11.7167 8.1286L10.1106 9.73463V10.333V10.9314H10.7088H11.307L12.913 9.3255L14.5191 7.71963L13.9209 7.1211L13.3229 6.52257Z" fill="#08BF5D"/>
</svg>
