<svg width="20" height="20" viewBox="0 0 20 20" fill="none" xmlns="http://www.w3.org/2000/svg">
<path d="M4.84175 4.52934C7.43094 2.03346 11.2842 2.13294 13.6806 4.52934C15.9721 6.8209 16.1122 10.4492 14.1009 12.9042L17.6581 16.4618L16.7742 17.3457L13.2166 13.7885C10.7616 15.7998 7.13331 15.6597 4.84175 13.3682C2.44535 10.9718 2.33267 6.94799 4.84175 4.52934ZM12.7967 5.41323C10.8441 3.46061 7.67826 3.46061 5.72563 5.41323C3.77301 7.36585 3.77301 10.5317 5.72563 12.4843C7.67826 14.4369 10.8441 14.4369 12.7967 12.4843C14.7493 10.5317 14.7493 7.36585 12.7967 5.41323Z" fill="white"/>
</svg>
