<svg width="15" height="16" viewBox="0 0 15 16" fill="none" xmlns="http://www.w3.org/2000/svg">
<path d="M1.84175 2.52937C4.43094 0.0334954 8.28419 0.132975 10.6806 2.52937C12.9721 4.82093 13.1122 8.44924 11.1009 10.9042L14.6581 14.4618L13.7742 15.3457L10.2166 11.7885C7.76162 13.7999 4.13331 13.6598 1.84175 11.3682C-0.554649 8.97181 -0.667329 4.94803 1.84175 2.52937ZM9.7967 3.41326C7.84408 1.46064 4.67826 1.46064 2.72563 3.41326C0.773012 5.36588 0.773012 8.5317 2.72563 10.4843C4.67826 12.4369 7.84408 12.4369 9.7967 10.4843C11.7493 8.5317 11.7493 5.36588 9.7967 3.41326Z" fill="#B3BBC1"/>
</svg>
