<svg width="22" height="22" viewBox="0 0 22 22" fill="none" xmlns="http://www.w3.org/2000/svg">
<g clip-path="url(#clip0_507_16)">
<path d="M21.9506 0.943228C22.0006 0.81829 22.0128 0.681422 21.9858 0.549592C21.9587 0.417762 21.8936 0.296767 21.7984 0.201608C21.7033 0.10645 21.5823 0.041311 21.4504 0.0142683C21.3186 -0.0127745 21.1817 -0.000532176 21.0568 0.0494775L1.05468 8.0506H1.0533L0.431804 8.2981C0.314091 8.34506 0.211647 8.42363 0.135788 8.52516C0.0599298 8.62668 0.0136091 8.74719 0.00194286 8.87339C-0.00972338 8.99958 0.0137189 9.12655 0.0696802 9.24025C0.125642 9.35396 0.211944 9.44999 0.319054 9.51773L0.882804 9.87523L0.884179 9.87798L7.7523 14.2477L12.1221 21.1159L12.1248 21.1186L12.4823 21.6824C12.5503 21.7891 12.6463 21.8749 12.76 21.9305C12.8736 21.9861 13.0004 22.0093 13.1263 21.9975C13.2522 21.9857 13.3725 21.9394 13.4738 21.8637C13.5751 21.7879 13.6536 21.6857 13.7006 21.5682L21.9506 0.943228ZM19.4302 3.54198L9.12593 13.8462L8.8303 13.3815C8.77614 13.2962 8.70384 13.2239 8.61855 13.1697L8.1538 12.8741L18.4581 2.56985L20.0778 1.92223L19.4316 3.54198H19.4302Z" fill="white"/>
</g>
<defs>
<clipPath id="clip0_507_16">
<rect width="22" height="22" fill="white"/>
</clipPath>
</defs>
</svg>
