<svg width="22" height="22" viewBox="0 0 22 22" fill="none" xmlns="http://www.w3.org/2000/svg">
<g clip-path="url(#clip0_3_814)">
<path d="M1.07418 21.9999C0.861686 21.9999 0.653958 21.937 0.477267 21.8189C0.300575 21.7009 0.162859 21.5331 0.0815376 21.3368C0.000216019 21.1405 -0.0210574 20.9245 0.0204081 20.7161C0.0618737 20.5077 0.164215 20.3162 0.314488 20.166L20.1661 0.314429C20.3675 0.112947 20.6408 -0.000244141 20.9257 -0.000244141C21.2107 -0.000244141 21.4839 0.112947 21.6854 0.314429C21.8869 0.51591 22.0001 0.789178 22.0001 1.07412C22.0001 1.35905 21.8869 1.63232 21.6854 1.8338L1.83386 21.6854C1.73419 21.7852 1.61577 21.8644 1.4854 21.9184C1.35503 21.9724 1.21528 22.0001 1.07418 21.9999Z" fill="black"/>
<path d="M20.9258 21.9999C20.7847 22.0001 20.645 21.9724 20.5146 21.9184C20.3842 21.8644 20.2658 21.7852 20.1661 21.6854L0.314551 1.8338C0.113069 1.63232 -0.00012207 1.35905 -0.00012207 1.07412C-0.00012207 0.789178 0.113069 0.51591 0.314551 0.314429C0.516033 0.112947 0.7893 -0.000244141 1.07424 -0.000244141C1.35918 -0.000244141 1.63244 0.112947 1.83393 0.314429L21.6855 20.166C21.8358 20.3162 21.9381 20.5077 21.9796 20.7161C22.021 20.9245 21.9998 21.1405 21.9184 21.3368C21.8371 21.5331 21.6994 21.7009 21.5227 21.8189C21.346 21.937 21.1383 21.9999 20.9258 21.9999Z" fill="black"/>
</g>
<defs>
<clipPath id="clip0_3_814">
<rect width="22" height="22" fill="white"/>
</clipPath>
</defs>
</svg>
