<svg width="100" height="101" viewBox="0 0 100 101" fill="none" xmlns="http://www.w3.org/2000/svg">
<g id="Frame" clip-path="url(#clip0_1_47)">
<g id="Group">
<path id="Vector" d="M89.1945 100.941H10.8055C4.83789 100.941 0 96.1035 0 90.1359V11.7469C0 5.7793 4.83789 0.941406 10.8055 0.941406H89.1943C95.1621 0.941406 99.9998 5.7793 99.9998 11.7469V90.1357C100 96.1035 95.1621 100.941 89.1945 100.941Z" fill="#635BFF"/>
<g id="Group_2">
<path id="Vector_2" fill-rule="evenodd" clip-rule="evenodd" d="M88.2933 51.5001C88.2933 46.0621 85.6593 41.7711 80.6248 41.7711C75.5692 41.7711 72.5102 46.0621 72.5102 51.4578C72.5102 57.8517 76.1215 61.0805 81.3046 61.0805C83.8324 61.0805 85.7442 60.5069 87.1888 59.6997V55.4513C85.7442 56.1735 84.0873 56.6197 81.9843 56.6197C79.9238 56.6197 78.0969 55.8973 77.8634 53.3909H88.2508C88.2508 53.1146 88.2933 52.01 88.2933 51.5001ZM77.7996 49.4821C77.7996 47.0818 79.2652 46.0834 80.6035 46.0834C81.8995 46.0834 83.2801 47.0818 83.2801 49.4821H77.7996ZM64.3105 41.7712C62.2287 41.7712 60.8904 42.7482 60.147 43.4281L59.8709 42.1111H55.1975V66.8798L60.5081 65.7539L60.5293 59.7424C61.2941 60.2947 62.4199 61.0807 64.2892 61.0807C68.0918 61.0807 71.5541 58.0218 71.5541 51.2879C71.5331 45.1275 68.028 41.7712 64.3105 41.7712ZM63.036 56.4073C61.7828 56.4073 61.0391 55.9611 60.5293 55.4088L60.5081 47.5278C61.0604 46.9119 61.8251 46.487 63.036 46.487C64.9691 46.487 66.3073 48.6538 66.3073 51.4365C66.3073 54.283 64.9903 56.4073 63.036 56.4073ZM47.89 40.5178L53.2219 39.3707V35.0586L47.89 36.1844V40.5178ZM47.89 42.1322H53.2219V60.7194H47.89V42.1322ZM42.1758 43.7041L41.836 42.1322H37.2476V60.7194H42.5582V48.1226C43.8114 46.4868 45.9357 46.7843 46.5943 47.018V42.1322C45.9144 41.8774 43.429 41.41 42.1758 43.7041ZM31.5546 37.5227L26.3715 38.6273L26.3502 55.6425C26.3502 58.7865 28.7082 61.102 31.852 61.102C33.5939 61.102 34.8685 60.7832 35.5695 60.4008V56.0887C34.8898 56.3647 31.5334 57.3419 31.5334 54.1981V46.6569H35.5695V42.1323H31.5334L31.5546 37.5227ZM17.1947 47.5278C17.1947 46.6993 17.8744 46.3807 19.0004 46.3807C20.6147 46.3807 22.6539 46.8692 24.2684 47.7402V42.7482C22.5053 42.0473 20.7634 41.7711 19.0004 41.7711C14.6881 41.7711 11.8203 44.0227 11.8203 47.7828C11.8203 53.6456 19.8925 52.711 19.8925 55.2389C19.8925 56.2161 19.0427 56.5346 17.8533 56.5346C16.0901 56.5346 13.8385 55.8124 12.054 54.8353V59.8909C14.0296 60.7407 16.0263 61.1018 17.8533 61.1018C22.2716 61.1018 25.3094 58.9137 25.3094 55.1113C25.2881 48.781 17.1947 49.907 17.1947 47.5278Z" fill="white"/>
</g>
</g>
</g>
<defs>
<clipPath id="clip0_1_47">
<rect width="100" height="100" fill="white" transform="translate(0 0.941406)"/>
</clipPath>
</defs>
</svg>
