<svg width="69" height="60" viewBox="0 0 69 60" fill="none" xmlns="http://www.w3.org/2000/svg">
<g id="Upload icon">
<path id="Vector" d="M36.4332 14.6049L36.5261 14.6327L36.5302 14.628C36.9632 14.7058 37.3921 14.4457 37.5192 14.0158C38.6768 10.1184 42.3235 7.39594 46.3861 7.39594C46.8685 7.39594 47.2592 7.00399 47.2592 6.52141C47.2592 6.0388 46.8684 5.64687 46.3861 5.64687C41.3909 5.64687 37.1936 8.97947 35.8459 13.5175C35.7082 13.9802 35.9712 14.4668 36.4332 14.6049Z" fill="black" stroke="#F9FFF9" stroke-width="0.3"/>
<path id="Vector_2" d="M56.511 42.0204H52.1728C51.7736 42.0204 51.4497 41.6959 51.4497 41.2959C51.4497 40.8958 51.7736 40.5713 52.1728 40.5713H56.511C62.4911 40.5713 67.3567 35.6958 67.3567 29.7035C67.3567 23.7112 62.4911 18.8357 56.511 18.8357H56.4067C56.197 18.8357 55.9976 18.7446 55.8603 18.5857C55.7229 18.4268 55.6609 18.2162 55.6909 18.0081C55.7554 17.5569 55.788 17.1035 55.788 16.6621C55.788 11.4688 51.571 7.24325 46.3883 7.24325C44.3721 7.24325 42.4493 7.87462 40.8275 9.06955C40.4712 9.33194 39.965 9.2155 39.759 8.82269C35.1661 0.0591112 23.17 -1.11775 16.9507 6.50581C14.3307 9.71749 13.3013 13.8954 14.1262 17.9673C14.2171 18.417 13.8736 18.8362 13.4176 18.8362H13.1278C7.14778 18.8362 2.28216 23.7118 2.28216 29.704C2.28216 35.6963 7.14778 40.5719 13.1278 40.5719H17.4661C17.8653 40.5719 18.1891 40.8964 18.1891 41.2964C18.1891 41.6964 17.8653 42.0209 17.4661 42.0209H13.1278C6.35027 42.0209 0.835999 36.4954 0.835999 29.704C0.835999 23.1031 6.04498 17.6981 12.5602 17.4C11.9482 13.1755 13.1185 8.91427 15.831 5.58877C22.4897 -2.57399 35.2506 -1.65905 40.645 7.44303C42.3659 6.36193 44.3351 5.79479 46.3881 5.79479C52.6672 5.79479 57.6428 11.1501 57.2075 17.4068C63.6627 17.7696 68.8025 23.146 68.8025 29.7035C68.8025 36.4954 63.2883 42.0204 56.5107 42.0204L56.511 42.0204Z" fill="black"/>
<path id="Vector_3" d="M16.4907 40.8867C16.4907 50.957 24.6667 59.15 34.7171 59.15C44.7676 59.15 52.9435 50.9569 52.9435 40.8867C52.9435 30.8164 44.7676 22.6234 34.7171 22.6234C24.6666 22.6234 16.4907 30.8166 16.4907 40.8867ZM18.2372 40.8867C18.2372 31.7809 25.6305 24.3728 34.7171 24.3728C43.8036 24.3728 51.197 31.7808 51.197 40.8867C51.197 49.9925 43.8036 57.4006 34.7171 57.4006C25.6306 57.4006 18.2372 49.9926 18.2372 40.8867Z" fill="black" stroke="#F9FFF9" stroke-width="0.3"/>
<g id="arrow">
<path id="Vector_4" d="M34.3737 48.1812C34.3737 48.5567 34.6779 48.8616 35.0534 48.8616C35.4288 48.8616 35.733 48.5571 35.733 48.1812V34.3898C35.733 34.0143 35.4288 33.7094 35.0534 33.7094C34.6779 33.7094 34.3737 34.0143 34.3737 34.3898V48.1812Z" fill="black" stroke="black" stroke-width="0.3"/>
<path id="Vector_5" d="M35.0557 35.3524L38.81 39.1144C38.9424 39.2471 39.1168 39.3137 39.2904 39.3138L35.0557 35.3524ZM35.0557 35.3524L31.3015 39.1143L35.0557 35.3524ZM30.4466 38.2582L30.3404 38.1523L34.5751 33.9089C34.5751 33.9089 34.5751 33.9089 34.5752 33.9089C34.8403 33.6428 35.2708 33.643 35.5362 33.9089L39.7709 38.1523C40.0362 38.4181 40.0362 38.8486 39.7709 39.1144C39.6383 39.2477 39.4637 39.3137 39.2905 39.3138L30.4466 38.2582ZM30.4466 38.2582L30.3404 38.1523C30.0751 38.4181 30.0751 38.8486 30.3404 39.1144C30.6057 39.3803 31.0363 39.3804 31.3014 39.1144L30.4466 38.2582Z" fill="black" stroke="black" stroke-width="0.3"/>
</g>
</g>
</svg>
