<svg width="18" height="16" viewBox="0 0 18 16" fill="none" xmlns="http://www.w3.org/2000/svg">
<path d="M12.7969 0.125C12.085 0.125828 11.3808 0.272494 10.7278 0.555953C10.0748 0.839412 9.48676 1.25365 9 1.77312C8.28667 1.01181 7.36095 0.482519 6.34301 0.253959C5.32508 0.0253993 4.26194 0.108129 3.29161 0.491408C2.32128 0.874687 1.48858 1.54081 0.901615 2.40331C0.314645 3.26581 0.000513647 4.28484 0 5.32812C0 10.5087 8.35594 15.5938 8.71875 15.7934C8.80624 15.846 8.90637 15.8738 9.00844 15.8738C9.1105 15.8738 9.21064 15.846 9.29813 15.7934C9.64406 15.5938 18 10.5087 18 5.32812C17.9985 3.94863 17.4498 2.62606 16.4744 1.6506C15.4989 0.675152 14.1764 0.126489 12.7969 0.125ZM9 14.6488C7.54594 13.7206 1.125 9.38375 1.125 5.32812C1.12572 4.46186 1.40227 3.61833 1.91457 2.91978C2.42686 2.22123 3.14829 1.70396 3.9743 1.44294C4.8003 1.18191 5.68796 1.19069 6.50864 1.46801C7.32932 1.74533 8.04037 2.27677 8.53875 2.98531C8.59067 3.05901 8.65955 3.11916 8.73958 3.16067C8.8196 3.20218 8.90844 3.22385 8.99859 3.22385C9.08875 3.22385 9.17758 3.20218 9.25761 3.16067C9.33764 3.11916 9.40652 3.05901 9.45844 2.98531C9.9564 2.27555 10.6676 1.74296 11.4888 1.46486C12.31 1.18677 13.1985 1.17764 14.0253 1.4388C14.852 1.69997 15.574 2.21783 16.0865 2.91721C16.5989 3.6166 16.8751 4.4611 16.875 5.32812C16.875 9.38094 10.4541 13.7178 9 14.6488Z" fill="black"/>
</svg>
